<svg width="50" height="26" viewBox="0 0 50 26" fill="none" xmlns="http://www.w3.org/2000/svg">
<rect x="0.5" y="0.5" width="49" height="25" rx="12.5" fill="#FFA500" fill-opacity="0.2" stroke="#FFA500"/>
<path d="M14.9999 19.5863C15.2651 19.5863 15.5194 19.6829 15.707 19.8549C15.8945 20.0268 15.9999 20.26 15.9999 20.5032V21.42C15.9999 21.6632 15.8945 21.8964 15.707 22.0683C15.5194 22.2403 15.2651 22.3368 14.9999 22.3368C14.7347 22.3368 14.4803 22.2403 14.2928 22.0683C14.1052 21.8964 13.9999 21.6632 13.9999 21.42V20.5032C13.9999 20.26 14.1052 20.0268 14.2928 19.8549C14.4803 19.6829 14.7347 19.5863 14.9999 19.5863ZM21.3639 17.7068L22.0709 18.355C22.253 18.5279 22.3538 18.7595 22.3515 18.9999C22.3493 19.2403 22.2441 19.4703 22.0587 19.6402C21.8733 19.8102 21.6225 19.9067 21.3603 19.9088C21.0981 19.9108 20.8455 19.8184 20.6569 19.6514L19.9499 19.0032C19.7677 18.8303 19.6669 18.5987 19.6692 18.3583C19.6715 18.1179 19.7766 17.888 19.962 17.718C20.1475 17.548 20.3983 17.4516 20.6605 17.4495C20.9227 17.4474 21.1753 17.5398 21.3639 17.7068ZM8.63587 17.7068C8.81583 17.5424 9.0573 17.4469 9.31125 17.4398C9.5652 17.4327 9.81258 17.5145 10.0031 17.6685C10.1937 17.8226 10.3132 18.0374 10.3373 18.2693C10.3614 18.5011 10.2883 18.7327 10.1329 18.917L10.0499 19.0032L9.34287 19.6514C9.16291 19.8159 8.92143 19.9113 8.66748 19.9184C8.41354 19.9255 8.16616 19.8438 7.97559 19.6897C7.78502 19.5356 7.66556 19.3208 7.64147 19.089C7.61738 18.8571 7.69046 18.6255 7.84587 18.4412L7.92887 18.355L8.63587 17.7068ZM14.9999 7.66737C16.5912 7.66737 18.1173 8.24694 19.2425 9.27859C20.3677 10.3102 20.9999 11.7095 20.9999 13.1684C20.9999 14.6274 20.3677 16.0266 19.2425 17.0583C18.1173 18.0899 16.5912 18.6695 14.9999 18.6695C13.4086 18.6695 11.8824 18.0899 10.7572 17.0583C9.63201 16.0266 8.99987 14.6274 8.99987 13.1684C8.99987 11.7095 9.63201 10.3102 10.7572 9.27859C11.8824 8.24694 13.4086 7.66737 14.9999 7.66737ZM6.99987 12.2516C7.25475 12.2518 7.4999 12.3413 7.68524 12.5017C7.87057 12.6622 7.9821 12.8814 7.99704 13.1147C8.01198 13.348 7.92919 13.5777 7.7656 13.7569C7.60201 13.9361 7.36996 14.0512 7.11687 14.0788L6.99987 14.0853H5.99987C5.74499 14.085 5.49984 13.9955 5.3145 13.8351C5.12916 13.6747 5.01763 13.4554 5.0027 13.2222C4.98776 12.9889 5.07054 12.7592 5.23413 12.58C5.39772 12.4008 5.62977 12.2856 5.88287 12.258L5.99987 12.2516H6.99987ZM23.9999 12.2516C24.2651 12.2516 24.5194 12.3482 24.707 12.5201C24.8945 12.6921 24.9999 12.9253 24.9999 13.1684C24.9999 13.4116 24.8945 13.6448 24.707 13.8167C24.5194 13.9887 24.2651 14.0853 23.9999 14.0853H22.9999C22.7347 14.0853 22.4803 13.9887 22.2928 13.8167C22.1052 13.6448 21.9999 13.4116 21.9999 13.1684C21.9999 12.9253 22.1052 12.6921 22.2928 12.5201C22.4803 12.3482 22.7347 12.2516 22.9999 12.2516H23.9999ZM7.92887 6.68543C8.10106 6.52757 8.33016 6.43274 8.57319 6.41873C8.81621 6.40472 9.05647 6.47249 9.24887 6.60933L9.34287 6.68543L10.0499 7.33364C10.2292 7.49863 10.3333 7.72003 10.3411 7.95286C10.3489 8.18569 10.2597 8.4125 10.0916 8.58722C9.92359 8.76194 9.68932 8.87146 9.43639 8.89355C9.18347 8.91564 8.93086 8.84864 8.72987 8.70615L8.63587 8.63005L7.92887 7.98185C7.7414 7.80991 7.63608 7.57675 7.63608 7.33364C7.63608 7.09053 7.7414 6.85736 7.92887 6.68543ZM22.0709 6.68543C22.2583 6.85736 22.3637 7.09053 22.3637 7.33364C22.3637 7.57675 22.2583 7.80991 22.0709 7.98185L21.3639 8.63005C21.2716 8.71762 21.1613 8.78747 21.0393 8.83552C20.9173 8.88357 20.786 8.90886 20.6533 8.90992C20.5205 8.91098 20.3888 8.88778 20.2659 8.84168C20.143 8.79558 20.0314 8.7275 19.9375 8.64142C19.8436 8.55533 19.7693 8.45297 19.719 8.34029C19.6688 8.22761 19.6435 8.10688 19.6446 7.98515C19.6458 7.86341 19.6734 7.7431 19.7258 7.63124C19.7782 7.51938 19.8544 7.41822 19.9499 7.33364L20.6569 6.68543C20.8444 6.51355 21.0987 6.41699 21.3639 6.41699C21.629 6.41699 21.8833 6.51355 22.0709 6.68543ZM14.9999 4C15.2651 4 15.5194 4.0966 15.707 4.26854C15.8945 4.44048 15.9999 4.67368 15.9999 4.91684V5.83368C15.9999 6.07685 15.8945 6.31005 15.707 6.48199C15.5194 6.65393 15.2651 6.75053 14.9999 6.75053C14.7347 6.75053 14.4803 6.65393 14.2928 6.48199C14.1052 6.31005 13.9999 6.07685 13.9999 5.83368V4.91684C13.9999 4.67368 14.1052 4.44048 14.2928 4.26854C14.4803 4.0966 14.7347 4 14.9999 4Z" fill="#FFA500"/>
<rect x="34" y="6" width="6" height="6" rx="3" fill="#FFA500"/>
<rect x="31" y="16" width="3" height="3" rx="1.5" fill="#FFA500"/>
</svg>
