<svg width="48" height="24" viewBox="0 0 48 24" fill="none" xmlns="http://www.w3.org/2000/svg">
<rect width="48" height="24" rx="12" fill="url(#paint0_linear_30_284)"/>
<path d="M36.6974 7.7104C36.468 5.97395 35.7738 4.41271 34.758 3.12C34.5119 2.80734 34.76 2.34804 35.1619 2.39387C39.7953 2.92629 43.5859 6.63766 43.8061 11.511C44.013 16.1112 40.74 20.3206 36.1429 21.3608C32.9531 22.0827 29.8542 21.2284 27.5931 19.3801C27.2878 19.1301 27.4551 18.6367 27.8528 18.6007C27.9583 18.5916 28.0651 18.5796 28.1716 18.5655C33.5779 17.8513 37.3951 12.9919 36.6974 7.7104Z" fill="white"/>
<path fill-rule="evenodd" clip-rule="evenodd" d="M35.207 2.03441C34.4479 1.94785 34.0381 2.80049 34.464 3.34175C35.4418 4.58606 36.1094 6.08799 36.3302 7.7589C37.0017 12.8423 33.3278 17.5195 28.1242 18.2069C28.0226 18.2203 27.9215 18.2316 27.8223 18.2402L27.8216 18.2403L27.8208 18.2404C27.108 18.305 26.7872 19.1936 27.3543 19.6581L27.3546 19.6583C29.6997 21.5753 32.9159 22.4621 36.2243 21.7134C40.9964 20.6336 44.3907 16.2679 44.1759 11.4929L44.1759 11.4928C43.9475 6.43704 40.0139 2.58676 35.2074 2.03444L35.207 2.03441ZM43.4362 11.5291C43.2242 6.8383 39.5768 3.26591 35.1166 2.75332L43.4362 11.5291ZM35.1166 2.75332C35.0941 2.75077 35.0817 2.75531 35.0738 2.75964C35.0638 2.76509 35.052 2.77555 35.0428 2.79236C35.0242 2.82618 35.0253 2.86435 35.0519 2.89825L35.0521 2.89844C36.106 4.23952 36.8265 5.86 37.0645 7.66189C37.7884 13.1414 33.8281 18.1831 28.219 18.9241C28.108 18.9388 27.996 18.9514 27.8845 18.9611C27.8629 18.9631 27.8495 18.9701 27.8395 18.9783C27.8279 18.9879 27.8172 19.0026 27.8111 19.021C27.8049 19.0394 27.8051 19.056 27.8081 19.0679C27.8106 19.0776 27.816 19.0891 27.8319 19.1021C30.0089 20.8816 32.9905 21.7033 36.0615 21.0083C40.4836 20.0077 43.6352 15.9545 43.4362 11.5292" fill="white"/>
<path d="M24.7528 4.1869L25.4928 6.40922L27.7386 6.45953C27.991 6.46538 28.0955 6.80115 27.8939 6.96144L26.1044 8.38526L26.7534 10.6392C26.8265 10.8925 26.5545 11.1001 26.3462 10.9486L24.4998 9.60669L22.6539 10.9486C22.4461 11.1001 22.1735 10.8919 22.2467 10.6392L22.8951 8.38526L21.1051 6.96144C20.9051 6.80174 21.009 6.46479 21.2609 6.45953L23.5073 6.40922L24.2467 4.1869C24.3322 3.9377 24.669 3.9377 24.7528 4.1869Z" fill="white"/>
<path d="M15.6083 15.0801L15.9255 16.0325L16.888 16.0541C16.9962 16.0566 17.0409 16.2005 16.9545 16.2692L16.1876 16.8794L16.4657 17.8454C16.4971 17.9539 16.3805 18.0429 16.2912 17.978L15.4999 17.4029L14.7088 17.978C14.6198 18.0429 14.5029 17.9537 14.5343 17.8454L14.8122 16.8794L14.045 16.2692C13.9593 16.2007 14.0039 16.0563 14.1118 16.0541L15.0745 16.0325L15.3915 15.0801C15.4281 14.9733 15.5724 14.9733 15.6083 15.0801Z" fill="white"/>
<defs>
<linearGradient id="paint0_linear_30_284" x1="0" y1="24" x2="48" y2="24" gradientUnits="userSpaceOnUse">
<stop stop-color="#AC6AEC"/>
<stop offset="1" stop-color="#BB7FF5"/>
</linearGradient>
</defs>
</svg>
