<svg width="20" height="21" viewBox="0 0 20 21" fill="none" xmlns="http://www.w3.org/2000/svg">
<path d="M18.5714 11.9286H11.4286V19.0714C11.4286 19.4503 11.2781 19.8137 11.0102 20.0816C10.7422 20.3495 10.3789 20.5 10 20.5C9.62112 20.5 9.25776 20.3495 8.98985 20.0816C8.72194 19.8137 8.57143 19.4503 8.57143 19.0714V11.9286H1.42857C1.04969 11.9286 0.686328 11.7781 0.418419 11.5102C0.15051 11.2422 0 10.8789 0 10.5C0 10.1211 0.15051 9.75776 0.418419 9.48985C0.686328 9.22194 1.04969 9.07143 1.42857 9.07143H8.57143V1.92857C8.57143 1.54969 8.72194 1.18633 8.98985 0.918419C9.25776 0.650509 9.62112 0.5 10 0.5C10.3789 0.5 10.7422 0.650509 11.0102 0.918419C11.2781 1.18633 11.4286 1.54969 11.4286 1.92857V9.07143H18.5714C18.9503 9.07143 19.3137 9.22194 19.5816 9.48985C19.8495 9.75776 20 10.1211 20 10.5C20 10.8789 19.8495 11.2422 19.5816 11.5102C19.3137 11.7781 18.9503 11.9286 18.5714 11.9286Z" fill="#F3F3F3"/>
</svg>
