<svg width="576" height="576" viewBox="0 0 576 576" fill="none" xmlns="http://www.w3.org/2000/svg">
<path d="M576 440.525H0V440.813H576V440.525Z" fill="#EBEBEB"/>
<path d="M518.285 459.06H457.148V459.348H518.285V459.06Z" fill="#EBEBEB"/>
<path d="M381.565 455.455H313.989V455.743H381.565V455.455Z" fill="#EBEBEB"/>
<path d="M460.097 453.796H437.99V454.084H460.097V453.796Z" fill="#EBEBEB"/>
<path d="M165.496 450.305H115.741V450.593H165.496V450.305Z" fill="#EBEBEB"/>
<path d="M109.325 450.305H91.5378V450.593H109.325V450.305Z" fill="#EBEBEB"/>
<path d="M213.892 455.167H151.453V455.455H213.892V455.167Z" fill="#EBEBEB"/>
<path d="M273.024 389.146H50.5842C48.8416 389.143 47.1715 388.448 45.9404 387.215C44.7093 385.982 44.0178 384.31 44.0178 382.568V69.8803C44.033 68.1477 44.7311 66.4911 45.9606 65.2703C47.1901 64.0494 48.8516 63.363 50.5842 63.36H273.024C274.768 63.36 276.442 64.053 277.675 65.2866C278.909 66.5202 279.602 68.1933 279.602 69.9379V382.568C279.602 384.312 278.909 385.985 277.675 387.219C276.442 388.453 274.768 389.146 273.024 389.146ZM50.5842 63.5904C48.918 63.5934 47.3211 64.2575 46.144 65.4367C44.9669 66.616 44.3058 68.2141 44.3058 69.8803V382.568C44.3058 384.234 44.9669 385.832 46.144 387.011C47.3211 388.19 48.918 388.854 50.5842 388.858H273.024C274.691 388.855 276.289 388.191 277.468 387.012C278.647 385.833 279.311 384.235 279.314 382.568V69.8803C279.311 68.213 278.647 66.615 277.468 65.436C276.289 64.2571 274.691 63.5934 273.024 63.5904H50.5842Z" fill="#EBEBEB"/>
<path d="M522.213 389.146H299.762C298.018 389.143 296.347 388.449 295.114 387.216C293.881 385.983 293.187 384.311 293.184 382.568V69.8803C293.202 68.1467 293.903 66.4901 295.134 65.2695C296.366 64.049 298.028 63.3629 299.762 63.36H522.213C523.944 63.366 525.602 64.0538 526.829 65.2743C528.056 66.4948 528.753 68.1497 528.768 69.8803V382.568C528.768 384.308 528.078 385.978 526.85 387.211C525.621 388.444 523.954 389.139 522.213 389.146ZM299.762 63.5904C298.095 63.5934 296.497 64.2571 295.318 65.436C294.139 66.615 293.475 68.213 293.472 69.8803V382.568C293.475 384.235 294.139 385.833 295.318 387.012C296.497 388.191 298.095 388.855 299.762 388.858H522.213C523.88 388.855 525.479 388.191 526.657 387.012C527.836 385.833 528.5 384.235 528.503 382.568V69.8803C528.5 68.213 527.836 66.615 526.657 65.436C525.479 64.2571 523.88 63.5934 522.213 63.5904H299.762Z" fill="#EBEBEB"/>
<path d="M135.314 356.867H65.3531C62.0956 356.867 59.4548 359.507 59.4548 362.765V365.311C59.4548 368.568 62.0956 371.209 65.3531 371.209H135.314C138.572 371.209 141.212 368.568 141.212 365.311V362.765C141.212 359.507 138.572 356.867 135.314 356.867Z" fill="#EBEBEB"/>
<path d="M82.1377 371.209H70.6292L57.5425 440.525H69.051L82.1377 371.209Z" fill="#E0E0E0"/>
<path d="M105.109 371.209H93.6001L87.1604 440.525H98.6689L105.109 371.209Z" fill="#E0E0E0"/>
<path d="M118.529 371.209H130.038L143.136 440.525H131.628L118.529 371.209Z" fill="#E0E0E0"/>
<path d="M496.293 81.3888H227.128V315.878H496.293V81.3888Z" fill="#E6E6E6"/>
<path d="M504.369 81.3888H230.895V315.878H504.369V81.3888Z" fill="#F0F0F0"/>
<path d="M496.293 315.89H227.128V320.429H496.293V315.89Z" fill="#E6E6E6"/>
<path d="M508.677 315.89H235.204V320.429H508.677V315.89Z" fill="#F0F0F0"/>
<path d="M493.056 308.598V88.6809L242.196 88.6809V308.598H493.056Z" fill="#FAFAFA"/>
<path d="M322.399 308.598L369.688 88.6809H401.011L353.722 308.598H322.399Z" fill="white"/>
<path d="M285.834 308.598L333.124 88.6809H364.447L317.157 308.598H285.834Z" fill="white"/>
<path d="M248.106 89.2799V294.774C248.106 295.108 248.521 295.373 249.028 295.373H250.249C250.756 295.373 251.171 295.108 251.171 294.774V89.2799C251.171 88.9459 250.756 88.6809 250.249 88.6809H249.028C248.521 88.7039 248.106 88.9459 248.106 89.2799Z" fill="#F0F0F0"/>
<path d="M402.947 308.598L450.236 88.6809H462.447L415.158 308.598H402.947Z" fill="white"/>
<path d="M493.056 308.598V88.6809H491.616V308.598H493.056Z" fill="#E6E6E6"/>
<path opacity="0.5" d="M507.041 97.8048H237.876L236.828 91.5149H506.004L507.041 97.8048Z" fill="#E0E0E0"/>
<path opacity="0.5" d="M507.041 119.393H237.876L236.828 113.092H506.004L507.041 119.393Z" fill="#E0E0E0"/>
<path opacity="0.5" d="M507.041 140.97H237.876L236.828 134.68H506.004L507.041 140.97Z" fill="#E0E0E0"/>
<path opacity="0.5" d="M507.041 162.559H237.876L236.828 156.269H506.004L507.041 162.559Z" fill="#E0E0E0"/>
<path opacity="0.5" d="M507.041 184.136H237.876L236.828 177.846H506.004L507.041 184.136Z" fill="#E0E0E0"/>
<path opacity="0.5" d="M507.041 205.724H237.876L236.828 199.434H506.004L507.041 205.724Z" fill="#E0E0E0"/>
<path opacity="0.5" d="M507.041 108.599H237.876L236.828 102.309H506.004L507.041 108.599Z" fill="#E0E0E0"/>
<path opacity="0.5" d="M507.041 130.176H237.876L236.828 123.886H506.004L507.041 130.176Z" fill="#E0E0E0"/>
<path opacity="0.5" d="M507.041 151.764H237.876L236.828 145.474H506.004L507.041 151.764Z" fill="#E0E0E0"/>
<path opacity="0.5" d="M507.041 173.341H237.876L236.828 167.052H506.004L507.041 173.341Z" fill="#E0E0E0"/>
<path opacity="0.5" d="M507.041 194.93H237.876L236.828 188.64H506.004L507.041 194.93Z" fill="#E0E0E0"/>
<path opacity="0.5" d="M507.041 216.518H237.876L236.828 210.229H506.004L507.041 216.518Z" fill="#E0E0E0"/>
<path d="M496.293 333.665H460.65V440.525H496.293V333.665Z" fill="#E6E6E6"/>
<path d="M474.578 440.525H496.293V428.256H451.814L474.578 440.525Z" fill="#EBEBEB"/>
<path d="M389.457 333.665H353.814V440.525H389.457V333.665Z" fill="#E6E6E6"/>
<path d="M496.293 333.665H370.518V437.979H496.293V333.665Z" fill="#EBEBEB"/>
<path d="M392.233 440.525H370.518V428.256H414.997L392.233 440.525Z" fill="#EBEBEB"/>
<path d="M479.451 345.692H387.36V399.433H479.451V345.692Z" fill="#FAFAFA"/>
<path d="M479.451 404.905H387.36V430.479H479.451V404.905Z" fill="#FAFAFA"/>
<path d="M441.988 348.434H424.823C423.511 348.431 422.254 347.908 421.328 346.979C420.401 346.05 419.881 344.792 419.881 343.48H446.976C446.976 344.134 446.847 344.781 446.596 345.384C446.344 345.987 445.976 346.535 445.513 346.995C445.049 347.456 444.499 347.82 443.894 348.067C443.289 348.314 442.641 348.438 441.988 348.434Z" fill="#EBEBEB"/>
<path d="M441.988 407.635H424.823C423.512 407.635 422.255 407.115 421.328 406.188C420.402 405.261 419.881 404.004 419.881 402.693H446.976C446.976 403.346 446.847 403.992 446.595 404.595C446.344 405.198 445.976 405.745 445.512 406.204C445.048 406.664 444.498 407.027 443.893 407.272C443.288 407.518 442.641 407.641 441.988 407.635Z" fill="#EBEBEB"/>
<path d="M360.876 333.665H325.233V440.525H360.876V333.665Z" fill="#E6E6E6"/>
<path d="M339.172 440.525H360.875V428.256H316.408L339.172 440.525Z" fill="#EBEBEB"/>
<path d="M254.051 333.665H218.408V440.525H254.051V333.665Z" fill="#E6E6E6"/>
<path d="M360.887 333.665H235.112V437.979H360.887V333.665Z" fill="#EBEBEB"/>
<path d="M256.815 440.525H235.112V428.256H279.579L256.815 440.525Z" fill="#EBEBEB"/>
<path d="M344.045 345.692H251.954V399.433H344.045V345.692Z" fill="#FAFAFA"/>
<path d="M344.045 404.905H251.954V430.479H344.045V404.905Z" fill="#FAFAFA"/>
<path d="M306.57 348.434H289.417C288.104 348.431 286.846 347.908 285.918 346.98C284.989 346.051 284.466 344.793 284.463 343.48H311.524C311.524 344.794 311.002 346.054 310.073 346.983C309.144 347.912 307.884 348.434 306.57 348.434Z" fill="#EBEBEB"/>
<path d="M306.57 407.635H289.417C288.105 407.635 286.847 407.115 285.918 406.188C284.99 405.262 284.466 404.005 284.463 402.693H311.524C311.524 403.343 311.396 403.987 311.147 404.587C310.898 405.187 310.532 405.733 310.072 406.192C309.612 406.651 309.066 407.015 308.465 407.262C307.864 407.51 307.22 407.637 306.57 407.635Z" fill="#EBEBEB"/>
<path d="M235.48 333.665L496.293 333.665V329.184L235.48 329.184V333.665Z" fill="#F0F0F0"/>
<path d="M235.48 329.172H218.408V333.654H235.48V329.172Z" fill="#E0E0E0"/>
<path d="M97.2173 339.702C95.593 297.838 93.865 256.216 97.4131 235.215L103.173 231.137C103.173 231.137 101.906 235.042 101.238 299.186C100.57 363.329 99.7517 330.175 100.454 339.702H97.2173Z" fill="#E6E6E6"/>
<path d="M106.525 191.232C115.43 168.031 136.178 145.624 158.711 136.454C167.558 132.86 154.817 211.991 122.734 217.094C107.067 219.583 102.182 259.718 99.5443 278.957C98.6457 241.056 97.6205 214.433 106.525 191.232Z" fill="#E6E6E6"/>
<path d="M104.625 250.134C110.892 240.204 121.133 226.287 136.097 226.276C153.055 226.276 138.217 254.2 118.276 263.14C108.542 267.494 100.42 281.318 98.3118 289.981C98.4961 272.413 98.3579 260.064 104.625 250.134Z" fill="#E6E6E6"/>
<path d="M89.3722 220.113C78.4743 200.805 54.1901 181.382 28.3162 172.547C18.1671 169.091 17.1649 226.276 71.8848 239.962C89.568 244.385 96.6529 275.674 100.316 291.41C100.028 260.847 100.224 239.42 89.3722 220.113Z" fill="#E6E6E6"/>
<path d="M95.3395 265.893C88.4275 253.59 69.5117 247.576 52.5312 248.728C45.8726 249.178 45.1354 274.429 82.2182 284.187C93.4618 287.148 98.0006 306.95 100.339 316.973C100.143 297.504 102.275 278.208 95.3395 265.893Z" fill="#E6E6E6"/>
<path d="M96.0537 200.886C90.6508 183.675 74.7417 168.25 60.1459 161.879C54.3859 159.379 52.6463 187.914 83.9923 215.85C93.4963 224.329 96.4915 249.016 98.0467 261.527C98.7494 239.19 101.457 218.097 96.0537 200.886Z" fill="#E6E6E6"/>
<path d="M98.9107 356.867C87.5059 356.867 78.0825 356.037 77.4374 340.612L75.5366 320.371H122.296L120.396 340.612C119.739 356.037 110.316 356.867 98.9107 356.867Z" fill="#F0F0F0"/>
<path d="M122.469 328.712H75.364L74.0161 319.231H123.817L122.469 328.712Z" fill="#F0F0F0"/>
<path d="M288 492.549C411.359 492.549 511.361 486.711 511.361 479.509C511.361 472.306 411.359 466.468 288 466.468C164.641 466.468 64.6387 472.306 64.6387 479.509C64.6387 486.711 164.641 492.549 288 492.549Z" fill="#F5F5F5"/>
<path d="M83.5737 112.469L82.4231 112.525L83.5519 135.688L84.7025 135.631L83.5737 112.469Z" fill="#BB7FF5"/>
<path d="M85.0691 143.466L83.9185 143.522L84.473 154.901L85.6237 154.845L85.0691 143.466Z" fill="#BB7FF5"/>
<path d="M445.525 347.581H99.8439C99.3138 347.579 98.8053 347.371 98.4252 347.002C98.045 346.632 97.8227 346.13 97.8048 345.6L85.4093 91.008C85.3968 90.7326 85.4404 90.4575 85.5373 90.1994C85.6341 89.9413 85.7823 89.7055 85.9729 89.5063C86.1635 89.307 86.3926 89.1486 86.6462 89.0404C86.8997 88.9322 87.1727 88.8766 87.4484 88.8768H433.152C433.677 88.876 434.181 89.0762 434.563 89.4361C434.944 89.7961 435.173 90.2886 435.203 90.8122L447.598 345.496C447.603 345.77 447.552 346.043 447.45 346.297C447.348 346.551 447.195 346.783 447.002 346.977C446.809 347.171 446.578 347.325 446.324 347.429C446.071 347.533 445.799 347.585 445.525 347.581Z" fill="#BB7FF5"/>
<path opacity="0.8" d="M101.779 341.453L89.787 95.1322C89.7746 94.8563 89.818 94.5806 89.9148 94.3219C90.0115 94.0631 90.1596 93.8266 90.35 93.6265C90.5404 93.4263 90.7694 93.2668 91.023 93.1573C91.2766 93.0478 91.5498 92.9908 91.826 92.9895H429.143C429.668 92.989 430.173 93.1911 430.553 93.5538C430.933 93.9165 431.158 94.4117 431.182 94.9364L443.174 341.257C443.189 341.533 443.146 341.81 443.05 342.069C442.954 342.329 442.806 342.566 442.615 342.766C442.424 342.967 442.195 343.126 441.94 343.235C441.686 343.344 441.412 343.4 441.135 343.4H103.818C103.294 343.397 102.79 343.194 102.411 342.832C102.032 342.47 101.806 341.977 101.779 341.453Z" fill="white"/>
<path d="M186.509 329.633C186.241 329.631 185.985 329.528 185.79 329.344C185.596 329.16 185.478 328.91 185.46 328.643L174.712 107.85C174.692 107.706 174.702 107.558 174.742 107.418C174.782 107.277 174.851 107.147 174.944 107.034C175.038 106.922 175.154 106.831 175.284 106.766C175.415 106.701 175.558 106.664 175.704 106.657C175.85 106.651 175.996 106.675 176.132 106.728C176.268 106.781 176.391 106.862 176.494 106.966C176.597 107.07 176.677 107.194 176.73 107.33C176.782 107.466 176.805 107.612 176.797 107.758L187.557 328.539C187.563 328.677 187.542 328.814 187.495 328.944C187.448 329.073 187.376 329.192 187.283 329.294C187.19 329.396 187.078 329.478 186.953 329.536C186.828 329.594 186.693 329.627 186.555 329.633H186.509Z" fill="white"/>
<path d="M357.212 329.633C356.945 329.631 356.688 329.528 356.493 329.344C356.299 329.16 356.181 328.91 356.164 328.643L345.416 107.85C345.395 107.706 345.406 107.558 345.446 107.418C345.485 107.277 345.554 107.147 345.648 107.034C345.741 106.922 345.857 106.831 345.988 106.766C346.119 106.701 346.262 106.664 346.408 106.657C346.553 106.651 346.699 106.675 346.835 106.728C346.971 106.781 347.095 106.862 347.198 106.966C347.301 107.07 347.381 107.194 347.433 107.33C347.485 107.466 347.508 107.612 347.501 107.758L358.272 328.539C358.278 328.677 358.257 328.814 358.21 328.944C358.163 329.073 358.091 329.192 357.998 329.294C357.905 329.396 357.793 329.478 357.668 329.536C357.543 329.594 357.407 329.627 357.27 329.633H357.212Z" fill="white"/>
<path d="M271.872 329.633C271.605 329.631 271.348 329.528 271.153 329.344C270.959 329.16 270.841 328.91 270.824 328.643L260.064 107.85C260.044 107.706 260.054 107.558 260.094 107.418C260.134 107.277 260.203 107.147 260.296 107.034C260.39 106.922 260.505 106.831 260.636 106.766C260.767 106.701 260.91 106.664 261.056 106.657C261.202 106.651 261.348 106.675 261.484 106.728C261.62 106.781 261.743 106.862 261.846 106.966C261.949 107.07 262.029 107.194 262.081 107.33C262.134 107.466 262.157 107.612 262.149 107.758L272.897 328.539C272.905 328.676 272.886 328.813 272.84 328.943C272.794 329.072 272.723 329.191 272.631 329.293C272.539 329.395 272.427 329.478 272.303 329.536C272.179 329.594 272.044 329.627 271.907 329.633H271.872Z" fill="white"/>
<path d="M422.369 130.602H101.963C101.817 130.618 101.67 130.602 101.53 130.557C101.39 130.511 101.262 130.437 101.152 130.339C101.043 130.24 100.956 130.12 100.896 129.986C100.836 129.852 100.805 129.707 100.805 129.56C100.805 129.413 100.836 129.267 100.896 129.133C100.956 128.999 101.043 128.879 101.152 128.781C101.262 128.682 101.39 128.608 101.53 128.563C101.67 128.517 101.817 128.502 101.963 128.517H422.369C422.515 128.502 422.663 128.517 422.803 128.563C422.943 128.608 423.071 128.682 423.18 128.781C423.29 128.879 423.377 128.999 423.437 129.133C423.496 129.267 423.527 129.413 423.527 129.56C423.527 129.707 423.496 129.852 423.437 129.986C423.377 130.12 423.29 130.24 423.18 130.339C423.071 130.437 422.943 130.511 422.803 130.557C422.663 130.602 422.515 130.618 422.369 130.602Z" fill="white"/>
<path d="M111.617 117.7C112.363 117.401 113.168 117.281 113.968 117.349C114.768 117.417 115.541 117.672 116.225 118.092C117.377 118.829 118.08 120.396 119.532 120.741C121.179 121.075 121.686 119.727 122.849 118.956C124.324 117.976 126.57 118.414 128.218 118.541C132.588 118.863 136.954 119.247 141.316 119.693C145.624 120.108 149.979 120.845 154.276 120.004C155.762 119.716 155.128 117.446 153.654 117.7C149.253 118.564 144.588 117.619 140.175 117.193C135.763 116.767 131.316 116.364 126.87 116.041C125.351 115.854 123.81 116.019 122.365 116.525C121.684 116.827 121.072 117.266 120.568 117.815C120.384 117.999 120.2 118.38 119.9 118.334C119.601 118.287 119.267 117.608 119.151 117.47C118.149 116.338 116.83 115.534 115.365 115.163C113.901 114.791 112.358 114.868 110.938 115.384C109.544 115.937 110.143 118.207 111.56 117.688L111.617 117.7Z" fill="white"/>
<path d="M189.4 121.156C191.152 119.843 193.79 118.092 195.23 120.718C195.955 122.031 196.658 123.61 198.467 123.333C200.275 123.057 201.473 120.81 202.741 119.75C204.63 118.149 206.542 117.677 208.754 118.967C210.476 120.212 212.437 121.087 214.514 121.536C216.506 121.784 218.528 121.46 220.343 120.603C221.386 120.01 222.531 119.619 223.719 119.451C224.978 119.548 226.232 119.713 227.474 119.946C230.161 120.05 232.85 119.794 235.469 119.186C236.955 118.909 236.321 116.64 234.835 116.882C231.992 117.558 229.051 117.726 226.149 117.377C225.096 117.133 224.012 117.056 222.935 117.147C221.92 117.327 220.935 117.649 220.009 118.103C217.601 119.151 215.274 119.658 212.751 118.541C210.793 117.677 209.296 116.076 207.084 115.753C205.247 115.567 203.41 116.109 201.969 117.262C201.148 117.901 200.378 118.602 199.665 119.359C199.352 119.767 199.009 120.152 198.639 120.511C198.063 120.937 198.017 120.891 197.672 120.257C196.831 118.679 196.024 117.389 194.135 117.009C191.889 116.559 189.953 117.78 188.237 119.071C187.085 119.969 188.237 122.008 189.389 121.098L189.4 121.156Z" fill="white"/>
<path d="M277.632 120.511C279.003 119.866 280.397 119.278 281.825 118.771C283.218 118.158 284.7 117.769 286.215 117.619C287.539 117.619 288.703 118.379 289.97 118.656C290.945 118.873 291.963 118.768 292.873 118.356C293.703 117.976 294.555 117.043 295.454 116.893C296.352 116.744 297.343 117.93 298.23 118.333C299.129 118.709 300.114 118.824 301.075 118.668C301.962 118.564 303.264 118.103 304.094 118.668C304.923 119.232 305.096 120.234 305.925 120.73C306.281 120.945 306.685 121.066 307.1 121.082C307.515 121.098 307.927 121.008 308.298 120.822C309.128 120.419 309.577 119.67 310.268 119.071C311.282 118.218 312.457 118.691 313.621 118.967C314.664 119.267 315.754 119.369 316.835 119.267C318.044 119.105 319.45 118.333 320.671 118.575C322.698 118.979 323.747 121.121 326.005 120.015C327.364 119.347 326.177 117.32 324.853 117.988C324.277 118.264 322.606 116.836 322.053 116.559C321.061 116.176 319.974 116.111 318.943 116.375C317.719 116.781 316.43 116.957 315.141 116.893C314.063 116.614 312.971 116.391 311.87 116.225C310.894 116.142 309.921 116.412 309.128 116.986C308.679 117.32 307.711 118.806 307.123 118.679C306.858 118.679 306.432 117.746 306.271 117.527C306.008 117.173 305.684 116.869 305.315 116.628C304.506 116.176 303.572 115.998 302.654 116.122C301.63 116.377 300.569 116.451 299.52 116.34C298.529 116.052 297.873 115.085 296.882 114.739C294.647 113.967 293.576 115.799 291.664 116.364C290.431 116.721 289.164 115.845 288 115.534C286.796 115.217 285.53 115.217 284.325 115.534C281.62 116.268 278.993 117.264 276.48 118.506C275.121 119.151 276.307 121.179 277.632 120.534V120.511Z" fill="white"/>
<path d="M356.141 119.877L362.419 118.092C363.41 117.804 364.412 117.458 365.414 117.239C366.398 117.089 367.403 117.272 368.271 117.757C369.975 118.279 371.759 118.482 373.536 118.356C375.633 118.356 377.718 118.356 379.814 118.276L405.504 117.965C405.81 117.965 406.103 117.843 406.319 117.627C406.535 117.411 406.656 117.118 406.656 116.813C406.656 116.507 406.535 116.214 406.319 115.998C406.103 115.782 405.81 115.661 405.504 115.661L379.273 115.983C377.211 115.983 375.149 116.052 373.087 116.064C372.069 116.102 371.05 116.037 370.046 115.868C369.101 115.661 368.306 115.131 367.396 114.877C365.679 114.405 363.721 115.327 362.097 115.799L355.553 117.665C355.402 117.706 355.26 117.776 355.136 117.872C355.012 117.968 354.908 118.087 354.83 118.223C354.752 118.358 354.701 118.508 354.681 118.664C354.661 118.819 354.672 118.977 354.712 119.128C354.753 119.28 354.823 119.421 354.919 119.545C355.015 119.67 355.134 119.774 355.27 119.852C355.406 119.93 355.556 119.98 355.711 120.001C355.866 120.021 356.024 120.01 356.175 119.969L356.141 119.877Z" fill="white"/>
<path opacity="0.3" d="M188.41 211.277L132.78 214.272C129.769 195.527 128.285 176.568 128.344 157.582L182.696 155.52C183.559 174.198 185.467 192.812 188.41 211.277Z" fill="#BB7FF5"/>
<path d="M189.677 208.731L134.047 211.726C130.862 193.285 128.938 174.649 128.287 155.946L183.917 152.94C184.795 171.63 186.718 190.256 189.677 208.731Z" fill="#BB7FF5"/>
<path opacity="0.3" d="M258.474 231.725L202.545 228.35V172.915L258.474 176.291V231.725Z" fill="#BB7FF5"/>
<path d="M257.737 230.481L201.819 227.105L202.475 171.349L258.394 174.712L257.737 230.481Z" fill="white"/>
<path opacity="0.3" d="M311.789 220.861L367.695 219.03C369.078 206.162 362.995 173.825 359.631 162.328L305.407 165.784C310.049 186.175 312.042 205.367 311.789 220.861Z" fill="#BB7FF5"/>
<path d="M312.745 219.03L366.889 216.242C368.271 203.386 364.689 182.316 360.645 160.497L305.073 164.022C309.658 184.435 312.999 203.535 312.745 219.03Z" fill="#BB7FF5"/>
<path opacity="0.3" d="M158.469 306.559L215.539 300.799C215.39 287.781 208.696 257.553 204.734 246.229L150.912 252.588C156.672 272.771 156.879 291.064 158.469 306.559Z" fill="#BB7FF5"/>
<path d="M159.817 305.764L214.837 299.785C215.516 286.836 210.793 265.928 205.621 244.316L150.463 250.871C154.898 271.1 159.218 290.304 159.817 305.764Z" fill="#BB7FF5"/>
<path opacity="0.3" d="M297.216 244.466L352.766 254.834C356.936 242.715 358.007 210.171 357.201 198.386L302.976 189.896C303.034 210.609 300.799 229.571 297.216 244.466Z" fill="#BB7FF5"/>
<path d="M298.518 242.911L352.489 252.012C356.671 239.893 357.731 218.776 358.514 196.842L302.907 188.133C302.976 208.846 302.147 228.015 298.518 242.911Z" fill="white"/>
<path d="M429.281 192.707C430.433 193.859 431.309 194.895 432.265 196.024C433.221 197.153 434.143 198.248 435.041 199.388C436.862 201.692 438.59 203.996 440.237 206.415C441.884 208.835 443.451 211.311 444.845 213.938C446.335 216.574 447.64 219.311 448.75 222.129L449.176 223.2L449.28 223.465L449.418 223.868L449.672 224.651C449.799 225.158 449.914 225.642 450.017 226.126C450.121 226.61 450.179 227.048 450.236 227.497C450.417 229.142 450.475 230.797 450.409 232.451C450.277 235.442 449.942 238.421 449.407 241.367C448.379 247.037 446.895 252.616 444.972 258.048L438.912 256.643C439.361 251.228 439.776 245.699 439.926 240.376C440.018 237.795 439.976 235.211 439.799 232.635C439.72 231.503 439.554 230.378 439.304 229.271L439.131 228.591L438.912 228.096L438.255 226.771C435.888 222.175 433.132 217.789 430.019 213.661C428.452 211.53 426.805 209.445 425.146 207.371C424.316 206.323 423.464 205.298 422.611 204.284L420.077 201.347L429.281 192.707Z" fill="#B65B52"/>
<path d="M439.649 254.373L435.456 258.877L443.658 263.716C443.658 263.716 446.492 259.949 445.386 256.09L439.649 254.373Z" fill="#B55B52"/>
<path d="M429.996 265.536L437.979 268.335L443.647 263.716L435.445 258.877L429.996 265.536Z" fill="#B55B52"/>
<path d="M452.989 283.991L400.262 272.471C402.893 254.653 406.742 237.036 411.782 219.744L464.521 231.264C459.688 248.609 455.838 266.212 452.989 283.991Z" fill="#BB7FF5"/>
<path d="M461.303 233.8L409.575 218.399L394.175 270.126L445.902 285.527L461.303 233.8Z" fill="white"/>
<path d="M399.398 158.147C399.398 158.815 398.984 159.299 398.546 159.299C398.108 159.299 397.786 158.734 397.82 158.066C397.855 157.398 398.235 156.914 398.673 156.914C399.11 156.914 399.433 157.478 399.398 158.147Z" fill="#263238"/>
<path d="M399.041 159.345C398.149 161.356 396.986 163.235 395.585 164.932C396.026 165.277 396.537 165.521 397.083 165.647C397.628 165.772 398.195 165.776 398.742 165.658L399.041 159.345Z" fill="#A02724"/>
<path d="M402.048 154.541C402.144 154.521 402.23 154.468 402.29 154.391C402.363 154.318 402.404 154.218 402.404 154.115C402.404 154.011 402.363 153.912 402.29 153.838C401.814 153.449 401.253 153.178 400.652 153.047C400.051 152.917 399.428 152.932 398.834 153.089C398.785 153.105 398.739 153.13 398.7 153.164C398.66 153.197 398.628 153.238 398.604 153.284C398.58 153.33 398.566 153.381 398.562 153.432C398.558 153.484 398.564 153.536 398.581 153.585C398.596 153.634 398.622 153.68 398.655 153.719C398.688 153.759 398.729 153.791 398.775 153.815C398.821 153.838 398.872 153.852 398.923 153.856C398.975 153.86 399.027 153.854 399.076 153.838C399.551 153.713 400.049 153.704 400.529 153.812C401.008 153.92 401.454 154.143 401.829 154.46C401.894 154.506 401.969 154.534 402.048 154.541Z" fill="#263238"/>
<path d="M419.443 167.731C418.176 173.802 417.358 182.2 421.54 186.244C421.54 186.244 419.812 192.396 408.534 192.396C396.15 192.396 402.647 187.004 402.647 187.004C407.819 185.403 407.854 179.539 406.737 174.828L419.443 167.731Z" fill="#B55B52"/>
<path d="M393.212 471.468C392.152 471.468 391.127 471.318 390.781 470.846C390.692 470.719 390.644 470.568 390.644 470.414C390.644 470.259 390.692 470.108 390.781 469.982C390.848 469.866 390.937 469.766 391.044 469.686C391.151 469.607 391.274 469.551 391.404 469.521C392.786 469.152 395.666 470.799 395.781 470.869C395.818 470.888 395.848 470.918 395.867 470.955C395.886 470.993 395.892 471.035 395.885 471.076C395.874 471.115 395.854 471.15 395.826 471.178C395.797 471.206 395.762 471.227 395.724 471.237C394.895 471.385 394.054 471.462 393.212 471.468ZM391.922 469.855C391.796 469.841 391.668 469.841 391.542 469.855C391.38 469.892 391.239 469.991 391.15 470.131C391.012 470.373 391.058 470.5 391.15 470.569C391.53 471.099 393.627 471.111 395.171 470.892C394.166 470.337 393.062 469.985 391.922 469.855Z" fill="#BB7FF5"/>
<path d="M395.724 471.237H395.643C394.641 470.788 392.682 468.991 392.844 468.058C392.844 467.839 393.051 467.562 393.581 467.505C393.786 467.473 393.995 467.486 394.194 467.544C394.393 467.602 394.577 467.702 394.733 467.839C395.77 468.703 395.966 470.938 395.977 471.03C395.974 471.099 395.945 471.165 395.896 471.214C395.871 471.23 395.842 471.24 395.812 471.244C395.783 471.248 395.752 471.245 395.724 471.237ZM393.742 467.873H393.615C393.27 467.873 393.247 468.046 393.235 468.092C393.132 468.657 394.468 470.062 395.482 470.673C395.397 469.736 395.027 468.847 394.422 468.127C394.233 467.964 393.992 467.874 393.742 467.873Z" fill="#BB7FF5"/>
<path d="M405.181 471.041H396.887L396.311 451.849H404.605L405.181 471.041Z" fill="#B55B52"/>
<path d="M396.611 470.085H405.665C405.83 470.084 405.989 470.14 406.117 470.243C406.245 470.345 406.334 470.489 406.368 470.65L407.912 478.011C407.95 478.191 407.947 478.378 407.903 478.556C407.859 478.735 407.775 478.902 407.658 479.044C407.54 479.185 407.392 479.299 407.225 479.375C407.057 479.452 406.875 479.49 406.691 479.486C403.431 479.486 398.719 479.244 394.606 479.244C389.814 479.244 386.784 479.509 381.151 479.509C377.752 479.509 376.854 476.053 378.282 475.753C384.78 474.336 388.961 474.186 394.606 470.73C395.201 470.332 395.895 470.108 396.611 470.085Z" fill="#263238"/>
<path d="M424.869 187.235C432.818 187.327 443.935 207.487 443.935 207.487L431.608 220.032C426.175 217.136 421.784 212.612 419.051 207.095C414.351 197.51 416.747 187.154 424.869 187.235Z" fill="#BB7FF5"/>
<path opacity="0.3" d="M424.869 187.235C432.818 187.327 443.935 207.487 443.935 207.487L431.608 220.032C426.175 217.136 421.784 212.612 419.051 207.095C414.351 197.51 416.747 187.154 424.869 187.235Z" fill="black"/>
<path d="M387.164 196.428C385.356 205.379 384.054 223.776 388.512 260.191H432.841C433.187 254.292 430.33 228.545 434.12 200.897C434.358 199.132 434.228 197.336 433.738 195.624C433.249 193.911 432.41 192.318 431.275 190.945C430.14 189.572 428.733 188.448 427.143 187.645C425.553 186.842 423.814 186.377 422.035 186.278H421.54C415.263 185.921 408.97 185.921 402.693 186.278C400.62 186.474 398.569 186.774 396.749 187.096C394.4 187.512 392.23 188.624 390.521 190.288C388.812 191.952 387.643 194.091 387.164 196.428Z" fill="#BB7FF5"/>
<path opacity="0.2" d="M387.164 196.428C385.356 205.379 384.054 223.776 388.512 260.191H432.841C433.187 254.292 430.33 228.545 434.12 200.897C434.358 199.132 434.228 197.336 433.738 195.624C433.249 193.911 432.41 192.318 431.275 190.945C430.14 189.572 428.733 188.448 427.143 187.645C425.553 186.842 423.814 186.377 422.035 186.278H421.54C415.263 185.921 408.97 185.921 402.693 186.278C400.62 186.474 398.569 186.774 396.749 187.096C394.4 187.512 392.23 188.624 390.521 190.288C388.812 191.952 387.643 194.091 387.164 196.428Z" fill="black"/>
<path opacity="0.2" d="M397.359 214.871L391.392 210.816C385.632 212.694 385.332 218.293 385.632 226.38C390.586 225.135 396.288 220.435 397.359 214.871Z" fill="black"/>
<path opacity="0.2" d="M396.311 451.849L396.611 461.745H404.905L404.605 451.849H396.311Z" fill="black"/>
<path d="M421.747 157.64C420.803 165.819 420.664 170.657 416.298 174.701C409.732 180.772 399.813 176.613 398.292 168.342C396.922 160.9 398.696 148.758 406.898 145.82C408.688 145.155 410.619 144.964 412.504 145.265C414.39 145.566 416.166 146.349 417.659 147.538C419.153 148.727 420.315 150.282 421.031 152.052C421.747 153.822 421.994 155.746 421.747 157.64Z" fill="#B55B52"/>
<path d="M404.283 161.142C401.737 161.718 400.585 155.716 403.131 153.412C400.827 152.26 397.498 150.589 396.392 148.078C395.113 145.198 398.569 141.742 401.553 141.892C400.585 139.968 402.705 134.83 408.787 136.765C414.87 138.701 417.727 141.696 417.727 141.696C417.727 141.696 419.731 135.037 423.959 140.417C427.703 145.187 426.263 149.276 426.263 149.276C426.263 149.276 431.839 154.564 430.399 158.492C429.595 160.79 427.948 162.697 425.791 163.826C425.791 163.826 426.632 173.042 419.858 175.346C413.084 177.65 408.81 173.042 409.386 170.346C405.009 170.496 400.539 164.736 404.283 161.142Z" fill="#263238"/>
<path d="M407.232 160.531C406.926 162.559 405.972 164.434 404.513 165.877C402.566 167.754 400.769 166.406 400.62 163.976C400.481 161.787 401.334 158.216 403.615 157.202C405.896 156.188 407.543 158.089 407.232 160.531Z" fill="#B55B52"/>
<path d="M475.546 460.581L468.173 463.231L460.846 444.257L468.219 441.619L475.546 460.581Z" fill="#B55B52"/>
<path d="M464.901 464.429C464.072 465.085 463.173 465.581 462.597 465.443C462.452 465.393 462.326 465.3 462.235 465.177C462.144 465.053 462.094 464.905 462.09 464.751C462.073 464.619 462.083 464.485 462.118 464.356C462.154 464.227 462.215 464.107 462.298 464.003C463.162 462.851 466.433 462.367 466.572 462.355C466.611 462.349 466.652 462.354 466.689 462.37C466.726 462.387 466.757 462.414 466.779 462.447C466.799 462.482 466.81 462.522 466.81 462.563C466.81 462.603 466.799 462.643 466.779 462.678C466.203 463.313 465.575 463.899 464.901 464.429ZM462.897 463.968C462.788 464.042 462.694 464.136 462.62 464.244C462.521 464.372 462.476 464.533 462.493 464.694C462.493 464.97 462.643 465.039 462.724 465.062C463.346 465.247 465.028 463.968 466.088 462.839C464.96 463.003 463.876 463.386 462.897 463.968Z" fill="#BB7FF5"/>
<path d="M466.733 462.701C466.711 462.709 466.686 462.709 466.664 462.701C465.604 462.966 462.954 462.77 462.505 461.929C462.401 461.733 462.355 461.422 462.747 461.042C462.887 460.906 463.053 460.8 463.235 460.731C463.417 460.661 463.612 460.63 463.807 460.639C465.155 460.639 466.687 462.309 466.756 462.378C466.772 462.406 466.781 462.438 466.781 462.47C466.781 462.503 466.772 462.535 466.756 462.563C466.762 462.586 466.763 462.61 466.759 462.634C466.755 462.658 466.746 462.681 466.733 462.701ZM463.104 461.284C463.068 461.304 463.037 461.332 463.012 461.365C462.759 461.606 462.828 461.733 462.851 461.779C463.116 462.275 465.028 462.563 466.203 462.424C465.565 461.728 464.722 461.252 463.795 461.065C463.546 461.05 463.3 461.128 463.104 461.284Z" fill="#BB7FF5"/>
<path d="M466.767 461.203L473.887 455.605C474.019 455.504 474.181 455.449 474.348 455.449C474.514 455.449 474.676 455.504 474.808 455.605L480.925 460.213C481.071 460.32 481.189 460.459 481.27 460.62C481.352 460.781 481.394 460.959 481.394 461.14C481.394 461.32 481.352 461.498 481.27 461.659C481.189 461.82 481.071 461.96 480.925 462.067C478.322 464.037 473.299 468.092 470.235 470.811C466.652 474.002 469.44 471.871 465.235 475.615C462.689 477.919 459.579 476.029 460.431 474.866C464.279 469.544 465.097 466.376 465.604 462.977C465.745 462.257 466.163 461.62 466.767 461.203Z" fill="#263238"/>
<path d="M345.681 217.002L342.443 210.033L333.631 215.482C333.631 215.482 336.534 221.414 342.547 220.769L345.681 217.002Z" fill="#B55B52"/>
<path d="M334.161 208.143L332.191 209.837C331.889 210.096 331.645 210.416 331.475 210.776C331.305 211.135 331.213 211.527 331.204 211.924C331.196 212.322 331.271 212.717 331.425 213.084C331.579 213.451 331.808 213.781 332.099 214.053L333.631 215.482L342.444 210.033L337.156 207.729C336.668 207.509 336.128 207.432 335.599 207.505C335.069 207.579 334.571 207.8 334.161 208.143Z" fill="#B55B52"/>
<path opacity="0.2" d="M460.846 444.257L464.625 454.038L471.998 451.4L468.219 441.619L460.846 444.257Z" fill="black"/>
<path d="M404.237 260.191C404.237 260.191 418.061 323.862 423.36 347.501C429.12 373.375 459.636 452.068 459.636 452.068L473.023 444.81C473.023 444.81 458.703 383.075 448.243 349.402C444.442 321.569 432.841 260.191 432.841 260.191H404.237Z" fill="#263238"/>
<path d="M455.869 448.128C455.8 448.128 458.611 453.323 458.611 453.323L475.177 447.103L473.864 442.045L455.869 448.128Z" fill="#BB7FF5"/>
<path opacity="0.3" d="M412.416 289.705C422.853 291.099 424.028 327.859 423.832 349.436C423.694 348.756 423.533 348.111 423.406 347.501C420.515 334.587 415.089 309.727 410.734 289.82C411.279 289.657 411.854 289.617 412.416 289.705Z" fill="black"/>
<path d="M388.512 260.191C388.512 260.191 384.987 322.168 385.563 347.443C386.162 373.743 393.546 459.832 393.546 459.832H407.589C407.589 459.832 409.893 375.276 410.838 349.459C411.886 321.304 417.658 260.191 417.658 260.191H388.512Z" fill="#263238"/>
<path d="M390.92 454.234C390.85 454.234 391.634 460.063 391.634 460.063H408.718L409.248 454.867L390.92 454.234Z" fill="#BB7FF5"/>
<path d="M400.458 200.713C398.542 204.123 396.406 207.406 394.065 210.54C391.742 213.631 389.246 216.589 386.588 219.398C383.962 222.198 381.185 224.847 378.34 227.359C375.494 229.87 372.522 232.266 369.85 234.467L368.905 235.25L368.122 235.526C366.215 236.207 364.175 236.432 362.166 236.183C360.517 236.001 358.898 235.606 357.35 235.008C354.756 233.911 352.319 232.474 350.104 230.734C348.058 229.144 346.132 227.403 344.344 225.527C343.469 224.617 342.639 223.661 341.821 222.705C341.003 221.749 340.243 220.781 339.448 219.686L343.999 215.436C345.761 216.749 347.662 218.177 349.563 219.398C351.396 220.652 353.296 221.805 355.254 222.854C356.991 223.813 358.835 224.563 360.749 225.089C361.458 225.281 362.191 225.371 362.926 225.354C363.312 225.358 363.691 225.254 364.02 225.055L362.304 226.115C365.115 223.488 367.661 221.138 370.195 218.661C372.73 216.184 375.114 213.673 377.407 211.081C379.699 208.489 381.888 205.816 383.904 203.017C385.92 200.218 387.786 197.407 389.549 194.527L400.458 200.713Z" fill="#B65B52"/>
<path d="M406.356 198.973C405.562 210.897 391.887 220.861 391.887 220.861L374.146 211.127C374.146 211.127 380.678 197.084 389.48 190.449C400.366 182.304 406.955 189.896 406.356 198.973Z" fill="#BB7FF5"/>
<path opacity="0.2" d="M406.356 198.973C405.562 210.897 391.887 220.861 391.887 220.861L374.146 211.127C374.146 211.127 380.678 197.084 389.48 190.449C400.366 182.304 406.955 189.896 406.356 198.973Z" fill="black"/>
</svg>
